<!-- Generated by IcoMoon.io -->
<svg version="1.1" xmlns="http://www.w3.org/2000/svg" width="512" height="512" viewBox="0 0 512 512">
<title></title>
<g id="icomoon-ignore">
</g>
<path d="M464 0h-416c-26.4 0-48 21.6-48 48v416c0 26.4 21.6 48 48 48h416c26.4 0 48-21.6 48-48v-416c0-26.4-21.6-48-48-48zM156.3 333h-55.3c-3.3 0-5.8-1.5-7.2-3.8-1.5-2.4-1.5-5.4 0-8.5l58.8-103.8c0.1-0.1 0.1-0.2 0-0.3l-37.4-64.8c-1.5-3.1-1.8-6.1-0.3-8.5 1.4-2.3 4.2-3.5 7.6-3.5h55.4c8.5 0 12.7 5.5 15.4 10.4 0 0 37.8 66 38.1 66.4-2.2 4-59.8 105.7-59.8 105.7-3 5.2-7 10.7-15.3 10.7zM418.2 76.1l-122.6 216.8c-0.1 0.1-0.1 0.3 0 0.4l78.1 142.6c1.5 3.1 1.6 6.2 0.1 8.6-1.4 2.3-4 3.5-7.4 3.5h-55.3c-8.5 0-12.7-5.6-15.5-10.5 0 0-78.5-144-78.7-144.4 3.9-6.9 123.2-218.5 123.2-218.5 3-5.3 6.6-10.5 14.8-10.5h56.1c3.3 0 6 1.3 7.4 3.5 1.4 2.3 1.4 5.4-0.2 8.5z"></path>
</svg>
